<svg width="79" height="37" viewBox="0 0 79 37" fill="none" xmlns="http://www.w3.org/2000/svg">
<path d="M4.2642 36V21.4545H7.33949V27.8679H7.53125L12.7656 21.4545H16.4517L11.054 27.9673L16.5156 36H12.8366L8.85227 30.0199L7.33949 31.8665V36H4.2642ZM27.0376 21.4545H30.1129V30.9006C30.1129 31.9612 29.8596 32.8892 29.353 33.6847C28.8511 34.4801 28.148 35.1004 27.2436 35.5455C26.3393 35.9858 25.2857 36.206 24.0831 36.206C22.8757 36.206 21.8198 35.9858 20.9155 35.5455C20.0111 35.1004 19.308 34.4801 18.8061 33.6847C18.3042 32.8892 18.0533 31.9612 18.0533 30.9006V21.4545H21.1286V30.6378C21.1286 31.1918 21.2493 31.6842 21.4908 32.1151C21.737 32.5459 22.0826 32.8845 22.5277 33.1307C22.9728 33.3769 23.4912 33.5 24.0831 33.5C24.6797 33.5 25.1982 33.3769 25.6385 33.1307C26.0836 32.8845 26.4268 32.5459 26.6683 32.1151C26.9145 31.6842 27.0376 31.1918 27.0376 30.6378V21.4545ZM32.6431 21.4545H36.4357L40.4414 31.2273H40.6119L44.6175 21.4545H48.4102V36H45.4272V26.5327H45.3065L41.5423 35.929H39.511L35.7468 26.4972H35.6261V36H32.6431V21.4545ZM53.451 36H50.1555L55.1768 21.4545H59.1399L64.1541 36H60.8587L57.2152 24.7784H57.1016L53.451 36ZM53.245 30.2827H61.0291V32.6832H53.245V30.2827ZM65.9048 36V21.4545H71.6435C72.742 21.4545 73.6795 21.651 74.456 22.044C75.2372 22.4323 75.8314 22.9839 76.2386 23.6989C76.6506 24.4091 76.8565 25.2448 76.8565 26.206C76.8565 27.1719 76.6482 28.0028 76.2315 28.6989C75.8149 29.3902 75.2112 29.9205 74.4205 30.2898C73.6345 30.6591 72.6828 30.8438 71.5653 30.8438H67.723V28.3722H71.0682C71.6553 28.3722 72.143 28.2917 72.5312 28.1307C72.9195 27.9697 73.2083 27.7282 73.3977 27.4062C73.5919 27.0843 73.6889 26.6842 73.6889 26.206C73.6889 25.723 73.5919 25.3158 73.3977 24.9844C73.2083 24.6529 72.9171 24.402 72.5241 24.2315C72.1359 24.0563 71.6458 23.9688 71.054 23.9688H68.9801V36H65.9048ZM73.7599 29.3807L77.375 36H73.9801L70.4432 29.3807H73.7599Z" fill="white"/>
<g filter="url(#filter0_d_0_1)">
<mask id="path-2-outside-1_0_1" maskUnits="userSpaceOnUse" x="3" y="-1" width="73" height="18" fill="black">
<rect fill="white" x="3" y="-1" width="73" height="18"/>
<path d="M13.2486 0.454545H16.3239V9.90057C16.3239 10.9612 16.0705 11.8892 15.5639 12.6847C15.062 13.4801 14.3589 14.1004 13.4545 14.5455C12.5502 14.9858 11.4967 15.206 10.294 15.206C9.08665 15.206 8.03078 14.9858 7.12642 14.5455C6.22206 14.1004 5.51894 13.4801 5.01705 12.6847C4.51515 11.8892 4.2642 10.9612 4.2642 9.90057V0.454545H7.33949V9.63778C7.33949 10.1918 7.46023 10.6842 7.7017 11.1151C7.94792 11.5459 8.29356 11.8845 8.73864 12.1307C9.18371 12.3769 9.70218 12.5 10.294 12.5C10.8906 12.5 11.4091 12.3769 11.8494 12.1307C12.2945 11.8845 12.6378 11.5459 12.8793 11.1151C13.1255 10.6842 13.2486 10.1918 13.2486 9.63778V0.454545ZM18.3001 2.99006V0.454545H30.2461V2.99006H25.793V15H22.7532V2.99006H18.3001ZM31.6594 2.99006V0.454545H43.6055V2.99006H39.1523V15H36.1126V2.99006H31.6594ZM46.3026 15H43.0071L48.0284 0.454545H51.9915L57.0057 15H53.7102L50.0668 3.77841H49.9531L46.3026 15ZM46.0966 9.28267H53.8807V11.6832H46.0966V9.28267ZM58.7564 0.454545H62.549L66.5547 10.2273H66.7251L70.7308 0.454545H74.5234V15H71.5405V5.53267H71.4197L67.6555 14.929H65.6243L61.8601 5.49716H61.7393V15H58.7564V0.454545Z"/>
</mask>
<path d="M13.2486 0.454545H16.3239V9.90057C16.3239 10.9612 16.0705 11.8892 15.5639 12.6847C15.062 13.4801 14.3589 14.1004 13.4545 14.5455C12.5502 14.9858 11.4967 15.206 10.294 15.206C9.08665 15.206 8.03078 14.9858 7.12642 14.5455C6.22206 14.1004 5.51894 13.4801 5.01705 12.6847C4.51515 11.8892 4.2642 10.9612 4.2642 9.90057V0.454545H7.33949V9.63778C7.33949 10.1918 7.46023 10.6842 7.7017 11.1151C7.94792 11.5459 8.29356 11.8845 8.73864 12.1307C9.18371 12.3769 9.70218 12.5 10.294 12.5C10.8906 12.5 11.4091 12.3769 11.8494 12.1307C12.2945 11.8845 12.6378 11.5459 12.8793 11.1151C13.1255 10.6842 13.2486 10.1918 13.2486 9.63778V0.454545ZM18.3001 2.99006V0.454545H30.2461V2.99006H25.793V15H22.7532V2.99006H18.3001ZM31.6594 2.99006V0.454545H43.6055V2.99006H39.1523V15H36.1126V2.99006H31.6594ZM46.3026 15H43.0071L48.0284 0.454545H51.9915L57.0057 15H53.7102L50.0668 3.77841H49.9531L46.3026 15ZM46.0966 9.28267H53.8807V11.6832H46.0966V9.28267ZM58.7564 0.454545H62.549L66.5547 10.2273H66.7251L70.7308 0.454545H74.5234V15H71.5405V5.53267H71.4197L67.6555 14.929H65.6243L61.8601 5.49716H61.7393V15H58.7564V0.454545Z" fill="url(#paint0_angular_0_1)"/>
<path d="M13.2486 0.454545V-0.545455H12.2486V0.454545H13.2486ZM16.3239 0.454545H17.3239V-0.545455H16.3239V0.454545ZM15.5639 12.6847L14.7205 12.1475L14.7182 12.151L15.5639 12.6847ZM13.4545 14.5455L13.8923 15.4445L13.8961 15.4427L13.4545 14.5455ZM7.12642 14.5455L6.68485 15.4427L6.68865 15.4445L7.12642 14.5455ZM5.01705 12.6847L4.17132 13.2183L4.17132 13.2183L5.01705 12.6847ZM4.2642 0.454545V-0.545455H3.2642V0.454545H4.2642ZM7.33949 0.454545H8.33949V-0.545455H7.33949V0.454545ZM7.7017 11.1151L6.82933 11.604L6.83346 11.6112L7.7017 11.1151ZM8.73864 12.1307L8.25457 13.0057L8.25457 13.0057L8.73864 12.1307ZM11.8494 12.1307L11.3654 11.2556L11.3614 11.2579L11.8494 12.1307ZM12.8793 11.1151L12.011 10.6189L12.0069 10.6262L12.8793 11.1151ZM13.2486 1.45455H16.3239V-0.545455H13.2486V1.45455ZM15.3239 0.454545V9.90057H17.3239V0.454545H15.3239ZM15.3239 9.90057C15.3239 10.7953 15.1125 11.532 14.7205 12.1475L16.4074 13.2219C17.0286 12.2465 17.3239 11.1271 17.3239 9.90057H15.3239ZM14.7182 12.151C14.322 12.779 13.764 13.2786 13.013 13.6482L13.8961 15.4427C14.9538 14.9221 15.8021 14.1812 16.4096 13.2183L14.7182 12.151ZM13.0168 13.6464C12.2729 14.0086 11.3743 14.206 10.294 14.206V16.206C11.619 16.206 12.8274 15.963 13.8923 15.4445L13.0168 13.6464ZM10.294 14.206C9.20832 14.206 8.30753 14.0083 7.56419 13.6464L6.68865 15.4445C7.75403 15.9633 8.96498 16.206 10.294 16.206V14.206ZM7.56799 13.6482C6.81699 13.2786 6.25901 12.779 5.86277 12.151L4.17132 13.2183C4.77886 14.1812 5.62714 14.9221 6.68485 15.4427L7.56799 13.6482ZM5.86277 12.151C5.47412 11.5351 5.2642 10.7971 5.2642 9.90057H3.2642C3.2642 11.1253 3.55618 12.2433 4.17132 13.2183L5.86277 12.151ZM5.2642 9.90057V0.454545H3.2642V9.90057H5.2642ZM4.2642 1.45455H7.33949V-0.545455H4.2642V1.45455ZM6.33949 0.454545V9.63778H8.33949V0.454545H6.33949ZM6.33949 9.63778C6.33949 10.3418 6.49439 11.0063 6.82936 11.604L8.57405 10.6262C8.42606 10.3621 8.33949 10.0418 8.33949 9.63778H6.33949ZM6.83346 11.6112C7.17295 12.2053 7.65335 12.6731 8.25457 13.0057L9.2227 11.2556C8.93377 11.0958 8.72288 10.8865 8.56995 10.6189L6.83346 11.6112ZM8.25457 13.0057C8.87045 13.3464 9.56074 13.5 10.294 13.5V11.5C9.84362 11.5 9.49697 11.4074 9.2227 11.2556L8.25457 13.0057ZM10.294 13.5C11.0302 13.5 11.7229 13.3471 12.3375 13.0035L11.3614 11.2579C11.0953 11.4066 10.751 11.5 10.294 11.5V13.5ZM12.3335 13.0057C12.9363 12.6722 13.4163 12.2022 13.7516 11.604L12.0069 10.6262C11.8592 10.8897 11.6527 11.0967 11.3654 11.2556L12.3335 13.0057ZM13.7475 11.6112C14.0898 11.0122 14.2486 10.3451 14.2486 9.63778H12.2486C12.2486 10.0384 12.1612 10.3561 12.011 10.6189L13.7475 11.6112ZM14.2486 9.63778V0.454545H12.2486V9.63778H14.2486ZM18.3001 2.99006H17.3001V3.99006H18.3001V2.99006ZM18.3001 0.454545V-0.545455H17.3001V0.454545H18.3001ZM30.2461 0.454545H31.2461V-0.545455H30.2461V0.454545ZM30.2461 2.99006V3.99006H31.2461V2.99006H30.2461ZM25.793 2.99006V1.99006H24.793V2.99006H25.793ZM25.793 15V16H26.793V15H25.793ZM22.7532 15H21.7532V16H22.7532V15ZM22.7532 2.99006H23.7532V1.99006H22.7532V2.99006ZM19.3001 2.99006V0.454545H17.3001V2.99006H19.3001ZM18.3001 1.45455H30.2461V-0.545455H18.3001V1.45455ZM29.2461 0.454545V2.99006H31.2461V0.454545H29.2461ZM30.2461 1.99006H25.793V3.99006H30.2461V1.99006ZM24.793 2.99006V15H26.793V2.99006H24.793ZM25.793 14H22.7532V16H25.793V14ZM23.7532 15V2.99006H21.7532V15H23.7532ZM22.7532 1.99006H18.3001V3.99006H22.7532V1.99006ZM31.6594 2.99006H30.6594V3.99006H31.6594V2.99006ZM31.6594 0.454545V-0.545455H30.6594V0.454545H31.6594ZM43.6055 0.454545H44.6055V-0.545455H43.6055V0.454545ZM43.6055 2.99006V3.99006H44.6055V2.99006H43.6055ZM39.1523 2.99006V1.99006H38.1523V2.99006H39.1523ZM39.1523 15V16H40.1523V15H39.1523ZM36.1126 15H35.1126V16H36.1126V15ZM36.1126 2.99006H37.1126V1.99006H36.1126V2.99006ZM32.6594 2.99006V0.454545H30.6594V2.99006H32.6594ZM31.6594 1.45455H43.6055V-0.545455H31.6594V1.45455ZM42.6055 0.454545V2.99006H44.6055V0.454545H42.6055ZM43.6055 1.99006H39.1523V3.99006H43.6055V1.99006ZM38.1523 2.99006V15H40.1523V2.99006H38.1523ZM39.1523 14H36.1126V16H39.1523V14ZM37.1126 15V2.99006H35.1126V15H37.1126ZM36.1126 1.99006H31.6594V3.99006H36.1126V1.99006ZM46.3026 15V16H47.0288L47.2535 15.3094L46.3026 15ZM43.0071 15L42.0618 14.6737L41.604 16H43.0071V15ZM48.0284 0.454545V-0.545455H47.3157L47.0831 0.128227L48.0284 0.454545ZM51.9915 0.454545L52.9369 0.12864L52.7045 -0.545455H51.9915V0.454545ZM57.0057 15V16H58.4082L57.9511 14.6741L57.0057 15ZM53.7102 15L52.7591 15.3088L52.9835 16H53.7102V15ZM50.0668 3.77841L51.0179 3.46959L50.7935 2.77841H50.0668V3.77841ZM49.9531 3.77841V2.77841H49.2269L49.0022 3.46905L49.9531 3.77841ZM46.0966 9.28267V8.28267H45.0966V9.28267H46.0966ZM53.8807 9.28267H54.8807V8.28267H53.8807V9.28267ZM53.8807 11.6832V12.6832H54.8807V11.6832H53.8807ZM46.0966 11.6832H45.0966V12.6832H46.0966V11.6832ZM46.3026 14H43.0071V16H46.3026V14ZM43.9524 15.3263L48.9737 0.780863L47.0831 0.128227L42.0618 14.6737L43.9524 15.3263ZM48.0284 1.45455H51.9915V-0.545455H48.0284V1.45455ZM51.0461 0.78045L56.0603 15.3259L57.9511 14.6741L52.9369 0.12864L51.0461 0.78045ZM57.0057 14H53.7102V16H57.0057V14ZM54.6614 14.6912L51.0179 3.46959L49.1156 4.08722L52.7591 15.3088L54.6614 14.6912ZM50.0668 2.77841H49.9531V4.77841H50.0668V2.77841ZM49.0022 3.46905L45.3516 14.6906L47.2535 15.3094L50.9041 4.08777L49.0022 3.46905ZM46.0966 10.2827H53.8807V8.28267H46.0966V10.2827ZM52.8807 9.28267V11.6832H54.8807V9.28267H52.8807ZM53.8807 10.6832H46.0966V12.6832H53.8807V10.6832ZM47.0966 11.6832V9.28267H45.0966V11.6832H47.0966ZM58.7564 0.454545V-0.545455H57.7564V0.454545H58.7564ZM62.549 0.454545L63.4743 0.0752839L63.2199 -0.545455H62.549V0.454545ZM66.5547 10.2273L65.6294 10.6065L65.8838 11.2273H66.5547V10.2273ZM66.7251 10.2273V11.2273H67.396L67.6504 10.6065L66.7251 10.2273ZM70.7308 0.454545V-0.545455H70.06L69.8055 0.0752839L70.7308 0.454545ZM74.5234 0.454545H75.5234V-0.545455H74.5234V0.454545ZM74.5234 15V16H75.5234V15H74.5234ZM71.5405 15H70.5405V16H71.5405V15ZM71.5405 5.53267H72.5405V4.53267H71.5405V5.53267ZM71.4197 5.53267V4.53267H70.7431L70.4915 5.1608L71.4197 5.53267ZM67.6555 14.929V15.929H68.3322L68.5838 15.3009L67.6555 14.929ZM65.6243 14.929L64.6955 15.2996L64.9467 15.929H65.6243V14.929ZM61.8601 5.49716L62.7889 5.12649L62.5377 4.49716H61.8601V5.49716ZM61.7393 5.49716V4.49716H60.7393V5.49716H61.7393ZM61.7393 15V16H62.7393V15H61.7393ZM58.7564 15H57.7564V16H58.7564V15ZM58.7564 1.45455H62.549V-0.545455H58.7564V1.45455ZM61.6237 0.833806L65.6294 10.6065L67.48 9.84801L63.4743 0.0752839L61.6237 0.833806ZM66.5547 11.2273H66.7251V9.22727H66.5547V11.2273ZM67.6504 10.6065L71.6561 0.833806L69.8055 0.0752839L65.7999 9.84801L67.6504 10.6065ZM70.7308 1.45455H74.5234V-0.545455H70.7308V1.45455ZM73.5234 0.454545V15H75.5234V0.454545H73.5234ZM74.5234 14H71.5405V16H74.5234V14ZM72.5405 15V5.53267H70.5405V15H72.5405ZM71.5405 4.53267H71.4197V6.53267H71.5405V4.53267ZM70.4915 5.1608L66.7273 14.5571L68.5838 15.3009L72.348 5.90454L70.4915 5.1608ZM67.6555 13.929H65.6243V15.929H67.6555V13.929ZM66.5531 14.5583L62.7889 5.12649L60.9313 5.86783L64.6955 15.2996L66.5531 14.5583ZM61.8601 4.49716H61.7393V6.49716H61.8601V4.49716ZM60.7393 5.49716V15H62.7393V5.49716H60.7393ZM61.7393 14H58.7564V16H61.7393V14ZM59.7564 15V0.454545H57.7564V15H59.7564Z" fill="black" mask="url(#path-2-outside-1_0_1)"/>
</g>
<defs>
<filter id="filter0_d_0_1" x="0.264206" y="0.454544" width="78.2592" height="22.7514" filterUnits="userSpaceOnUse" color-interpolation-filters="sRGB">
<feFlood flood-opacity="0" result="BackgroundImageFix"/>
<feColorMatrix in="SourceAlpha" type="matrix" values="0 0 0 0 0 0 0 0 0 0 0 0 0 0 0 0 0 0 127 0" result="hardAlpha"/>
<feOffset dy="4"/>
<feGaussianBlur stdDeviation="2"/>
<feComposite in2="hardAlpha" operator="out"/>
<feColorMatrix type="matrix" values="0 0 0 0 0 0 0 0 0 0 0 0 0 0 0 0 0 0 0.25 0"/>
<feBlend mode="normal" in2="BackgroundImageFix" result="effect1_dropShadow_0_1"/>
<feBlend mode="normal" in="SourceGraphic" in2="effect1_dropShadow_0_1" result="shape"/>
</filter>
<radialGradient id="paint0_angular_0_1" cx="0" cy="0" r="1" gradientUnits="userSpaceOnUse" gradientTransform="translate(45.5 3.5) rotate(90) scale(7.5 42.5)">
<stop stop-color="#FF56F6"/>
<stop offset="0.5" stop-color="#B936EE"/>
<stop offset="0.975" stop-color="#3BACE2"/>
</radialGradient>
</defs>
</svg>
